<svg xmlns="http://www.w3.org/2000/svg" xmlns:xlink="http://www.w3.org/1999/xlink" width="2000" zoomAndPan="magnify" viewBox="0 0 1500 1499.999933" height="2000" preserveAspectRatio="xMidYMid meet" version="1.0"><defs><clipPath id="44e52d6109"><path d="M 115.425781 150 L 1350 150 L 1350 766.144531 L 115.425781 766.144531 Z M 115.425781 150 " clip-rule="nonzero"/></clipPath><clipPath id="d5f6f7927c"><path d="M 1349.738281 152.25 L 1349.738281 763.894531 C 1349.738281 765.136719 1348.730469 766.144531 1347.488281 766.144531 L 117.675781 766.144531 C 116.433594 766.144531 115.425781 765.136719 115.425781 763.894531 L 115.425781 152.25 C 115.425781 151.007812 116.433594 150 117.675781 150 L 1347.488281 150 C 1348.730469 150 1349.738281 151.007812 1349.738281 152.25 Z M 1349.738281 152.25 " clip-rule="nonzero"/></clipPath><clipPath id="077a4ea1c1"><path d="M 0.425781 0 L 1234.761719 0 L 1234.761719 616.144531 L 0.425781 616.144531 Z M 0.425781 0 " clip-rule="nonzero"/></clipPath><clipPath id="b3e91c5476"><path d="M 1234.738281 2.25 L 1234.738281 613.894531 C 1234.738281 615.136719 1233.730469 616.144531 1232.488281 616.144531 L 2.675781 616.144531 C 1.433594 616.144531 0.425781 615.136719 0.425781 613.894531 L 0.425781 2.25 C 0.425781 1.007812 1.433594 0 2.675781 0 L 1232.488281 0 C 1233.730469 0 1234.738281 1.007812 1234.738281 2.25 Z M 1234.738281 2.25 " clip-rule="nonzero"/></clipPath><clipPath id="a8ae3f62c3"><rect x="0" width="1235" y="0" height="617"/></clipPath><clipPath id="7e611f0287"><path d="M 314 408 L 587 408 L 587 638 L 314 638 Z M 314 408 " clip-rule="nonzero"/></clipPath><clipPath id="589a755869"><path d="M 335.144531 408.679688 L 587 434.410156 L 566.238281 637.636719 L 314.386719 611.910156 Z M 335.144531 408.679688 " clip-rule="nonzero"/></clipPath><clipPath id="9915fe669e"><path d="M 0.160156 0.480469 L 273 0.480469 L 273 229.679688 L 0.160156 229.679688 Z M 0.160156 0.480469 " clip-rule="nonzero"/></clipPath><clipPath id="e8dc518450"><path d="M 21.144531 0.679688 L 273 26.410156 L 252.238281 229.636719 L 0.386719 203.910156 Z M 21.144531 0.679688 " clip-rule="nonzero"/></clipPath><clipPath id="1bdaf2cd8c"><rect x="0" width="273" y="0" height="230"/></clipPath><clipPath id="100f5a0a79"><path d="M 878 408 L 1152 408 L 1152 638 L 878 638 Z M 878 408 " clip-rule="nonzero"/></clipPath><clipPath id="fb82db3853"><path d="M 878.65625 434.226562 L 1130.546875 408.84375 L 1151.039062 612.257812 L 899.152344 637.636719 Z M 878.65625 434.226562 " clip-rule="nonzero"/></clipPath><clipPath id="f8d49a77e7"><path d="M 0.640625 0.71875 L 273.039062 0.71875 L 273.039062 229.679688 L 0.640625 229.679688 Z M 0.640625 0.71875 " clip-rule="nonzero"/></clipPath><clipPath id="4438b5396c"><path d="M 0.65625 26.226562 L 252.546875 0.84375 L 273.039062 204.257812 L 21.152344 229.636719 Z M 0.65625 26.226562 " clip-rule="nonzero"/></clipPath><clipPath id="ad2126c570"><rect x="0" width="274" y="0" height="230"/></clipPath><clipPath id="ed996445b3"><path d="M 148.429688 766.140625 L 1317 766.140625 L 1317 1350.417969 L 148.429688 1350.417969 Z M 148.429688 766.140625 " clip-rule="nonzero"/></clipPath><clipPath id="c5a079f6e1"><path d="M 148.429688 766.140625 C 148.429688 1084.386719 414.460938 1350.417969 732.707031 1350.417969 C 1050.953125 1350.417969 1316.984375 1084.386719 1316.984375 766.140625 L 992.554688 766.140625 C 992.554688 907.675781 874.242188 1025.992188 732.707031 1025.992188 C 591.167969 1025.992188 472.855469 907.675781 472.855469 766.140625 Z M 148.429688 766.140625 " clip-rule="nonzero"/></clipPath><clipPath id="90e3df738b"><path d="M 0.429688 0.140625 L 1169 0.140625 L 1169 584.417969 L 0.429688 584.417969 Z M 0.429688 0.140625 " clip-rule="nonzero"/></clipPath><clipPath id="e609068686"><path d="M 0.429688 0.140625 C 0.429688 318.386719 266.460938 584.417969 584.707031 584.417969 C 902.953125 584.417969 1168.984375 318.386719 1168.984375 0.140625 L 844.554688 0.140625 C 844.554688 141.675781 726.242188 259.992188 584.707031 259.992188 C 443.167969 259.992188 324.855469 141.675781 324.855469 0.140625 Z M 0.429688 0.140625 " clip-rule="nonzero"/></clipPath><clipPath id="052e20f285"><rect x="0" width="1169" y="0" height="585"/></clipPath></defs><g clip-path="url(#44e52d6109)"><g clip-path="url(#d5f6f7927c)"><g transform="matrix(1, 0, 0, 1, 115, 150)"><g clip-path="url(#a8ae3f62c3)"><g clip-path="url(#077a4ea1c1)"><g clip-path="url(#b3e91c5476)"><path fill="#cc8066" d="M 0.425781 0 L 1235.121094 0 L 1235.121094 616.144531 L 0.425781 616.144531 Z M 0.425781 0 " fill-opacity="1" fill-rule="nonzero"/></g></g></g></g></g></g><g clip-path="url(#7e611f0287)"><g clip-path="url(#589a755869)"><g transform="matrix(1, 0, 0, 1, 314, 408)"><g clip-path="url(#1bdaf2cd8c)"><g clip-path="url(#9915fe669e)"><g clip-path="url(#e8dc518450)"><path fill="#ffffff" d="M 21.144531 0.679688 L 272.800781 26.386719 L 252.039062 229.617188 L 0.386719 203.910156 Z M 21.144531 0.679688 " fill-opacity="1" fill-rule="nonzero"/></g></g></g></g></g></g><g clip-path="url(#100f5a0a79)"><g clip-path="url(#fb82db3853)"><g transform="matrix(1, 0, 0, 1, 878, 408)"><g clip-path="url(#ad2126c570)"><g clip-path="url(#f8d49a77e7)"><g clip-path="url(#4438b5396c)"><path fill="#ffffff" d="M 0.65625 26.226562 L 252.539062 0.847656 L 273.035156 204.257812 L 21.152344 229.636719 Z M 0.65625 26.226562 " fill-opacity="1" fill-rule="nonzero"/></g></g></g></g></g></g><g clip-path="url(#ed996445b3)"><g clip-path="url(#c5a079f6e1)"><g transform="matrix(1, 0, 0, 1, 148, 766)"><g clip-path="url(#052e20f285)"><g clip-path="url(#90e3df738b)"><g clip-path="url(#e609068686)"><path fill="#ffffff" d="M 1168.984375 584.417969 L 0.429688 584.417969 L 0.429688 0.140625 L 1168.984375 0.140625 Z M 1168.984375 584.417969 " fill-opacity="1" fill-rule="nonzero"/></g></g></g></g></g></g></svg>